<svg xmlns="http://www.w3.org/2000/svg" width="24" height="48" viewBox="0 0 24 48" version="1.1">
	<g transform="translate(0-1004.36)">
		<path d="m11.875 1010.37c-3.351 0-8.806 1.784-5.466 3.885 3.397 2.138.933 2.734-.623 1.367-2.315-2.032-2.786.085-2.786.724 0 3.348 4.03 6.02 9 6.02 4.97 0 9-2.613 9-5.961 0-3.348-4.154-6.04-9.125-6.04m-3.198 2.053c.259-.011.559.086.837.277.556.384.817 1.022.583 1.426-.235.404-.876.42-1.433.037-.556-.383-.816-1.022-.582-1.426.117-.202.336-.307.595-.314m6.334.225c.711 0 1.286.509 1.286 1.135 0 .626-.576 1.134-1.286 1.134-.711 0-1.286-.508-1.286-1.134 0-.626.576-1.135 1.286-1.135m2.535 2.681c.711 0 1.286.508 1.286 1.134 0 .626-.576 1.134-1.286 1.134-.711 0-1.287-.508-1.287-1.134 0-.626.577-1.134 1.287-1.134m-7.379 2.515c.711 0 1.287.509 1.287 1.135 0 .626-.577 1.134-1.287 1.134-.711 0-1.286-.508-1.286-1.134 0-.626.576-1.135 1.286-1.135m4.314.207c.711 0 1.286.508 1.286 1.134 0 .626-.576 1.134-1.286 1.134-.711 0-1.286-.508-1.286-1.134 0-.626.576-1.134 1.286-1.134" fill="#bbb" />
		<path d="m11.857 1034.39c-3.351 0-8.806 1.784-5.466 3.885 3.397 2.138.933 2.734-.623 1.367-2.315-2.032-2.786.085-2.786.724 0 3.348 4.03 6.02 9 6.02 4.97 0 9-2.613 9-5.961 0-3.348-4.154-6.04-9.125-6.04m-3.198 2.053c.259-.011.559.086.837.277.556.384.817 1.022.583 1.426-.235.404-.876.42-1.433.037-.556-.383-.816-1.022-.582-1.426.117-.202.336-.307.595-.314m6.334.225c.711 0 1.286.509 1.286 1.135 0 .626-.576 1.134-1.286 1.134-.711 0-1.286-.508-1.286-1.134 0-.626.576-1.135 1.286-1.135m2.535 2.681c.711 0 1.286.507 1.286 1.134 0 .626-.576 1.134-1.286 1.134-.711 0-1.287-.507-1.287-1.134 0-.627.577-1.134 1.287-1.134m-7.379 2.515c.711 0 1.287.509 1.287 1.135 0 .626-.577 1.134-1.287 1.134-.711 0-1.286-.508-1.286-1.134 0-.626.576-1.135 1.286-1.135m4.314.207c.711 0 1.286.508 1.286 1.134 0 .626-.576 1.134-1.286 1.134-.711 0-1.286-.508-1.286-1.134 0-.627.576-1.134 1.286-1.134" fill="#78b2f2" />
	</g>
</svg>